<?xml version="1.0" encoding="UTF-8" standalone="no"?>
<!-- Created with Inkscape (http://www.inkscape.org/) -->

<svg
   xmlns:dc="http://purl.org/dc/elements/1.1/"
   xmlns:cc="http://creativecommons.org/ns#"
   xmlns:rdf="http://www.w3.org/1999/02/22-rdf-syntax-ns#"
   xmlns:svg="http://www.w3.org/2000/svg"
   xmlns="http://www.w3.org/2000/svg"
   xmlns:sodipodi="http://sodipodi.sourceforge.net/DTD/sodipodi-0.dtd"
   xmlns:inkscape="http://www.inkscape.org/namespaces/inkscape"
   width="579.04486"
   height="463.45621"
   id="svg2"
   version="1.1"
   inkscape:version="0.91 r13725"
   sodipodi:docname="logo_gray.svg">
  <defs
     id="defs4">
    <filter
       inkscape:label="Cross-smooth"
       inkscape:menu="Blurs"
       inkscape:menu-tooltip="Blur inner borders and intersections"
       id="filter3868"
       style="color-interpolation-filters:sRGB">
      <feGaussianBlur
         stdDeviation="3"
         id="feGaussianBlur3870" />
      <feColorMatrix
         result="fbSourceGraphic"
         values="1 0 0 0 0 0 1 0 0 0 0 0 1 0 0 0 0 0 6 -2.5 "
         id="feColorMatrix3872" />
    </filter>
    <filter
       inkscape:collect="always"
       style="color-interpolation-filters:sRGB"
       id="filter4407"
       x="-0.042098265"
       width="1.0841964"
       y="-0.052683998"
       height="1.105368">
      <feGaussianBlur
         inkscape:collect="always"
         stdDeviation="5.395853"
         id="feGaussianBlur4409" />
    </filter>
  </defs>
  <sodipodi:namedview
     id="base"
     pagecolor="#ffffff"
     bordercolor="#666666"
     borderopacity="1.0"
     inkscape:pageopacity="0.0"
     inkscape:pageshadow="2"
     inkscape:zoom="0.97875049"
     inkscape:cx="90.709754"
     inkscape:cy="114.70066"
     inkscape:document-units="px"
     inkscape:current-layer="layer1"
     showgrid="false"
     inkscape:window-width="1600"
     inkscape:window-height="1038"
     inkscape:window-x="2025"
     inkscape:window-y="76"
     inkscape:window-maximized="0"
     fit-margin-top="0"
     fit-margin-left="0"
     fit-margin-right="0"
     fit-margin-bottom="0" />
  <metadata
     id="metadata7">
    <rdf:RDF>
      <cc:Work
         rdf:about="">
        <dc:format>image/svg+xml</dc:format>
        <dc:type
           rdf:resource="http://purl.org/dc/dcmitype/StillImage" />
        <dc:title></dc:title>
      </cc:Work>
    </rdf:RDF>
  </metadata>
  <g
     inkscape:label="Layer 1"
     inkscape:groupmode="layer"
     id="layer1"
     transform="translate(-233.71933,-322.19607)">
    <path
       style="opacity:1;fill:#3f51b5;fill-opacity:0;stroke:#2196f3;stroke-width:3.0999999;stroke-linejoin:round;stroke-miterlimit:4;stroke-dasharray:none;stroke-opacity:0;filter:url(#filter4407)"
       d="m 222.36436,274.69735 c -4.29562,-0.90388 -8.04091,-2.98207 -15.15052,-8.40669 -7.36221,-5.61735 -11.23886,-7.6663 -17.60847,-9.30671 -7.3622,-1.89604 -11.56241,-4.24965 -18.83881,-10.55644 -11.49991,-9.96749 -10.50012,-9.45208 -20.04363,-10.33303 -12.67298,-1.16985 -36.94356,-0.90044 -43.11662,0.4786 -22.540981,5.03557 -29.949109,5.56655 -37.531305,2.69004 -6.96413,-2.64202 -15.326401,-11.68302 -19.468181,-21.04831 -2.065699,-4.67091 -7.296508,-22.20419 -10.95564,-36.72248 -2.220243,-8.80922 -2.699821,-12.11403 -3.014772,-20.77506 -0.600851,-16.52314 1.413616,-33.75932 5.271138,-45.10091 9.041091,-26.581905 45.111718,-60.316498 78.64242,-73.549317 13.9151,-5.49156 34.7727,-8.638508 71.94524,-10.854931 6.55631,-0.390922 15.9844,-1.044159 20.9513,-1.451638 4.9669,-0.407478 11.14392,-0.550943 13.72671,-0.318809 14.84083,1.33385 32.5449,4.877695 40.98266,8.203549 28.17728,11.106447 51.80065,32.399058 63.1658,56.933636 5.57744,12.04035 8.47035,20.45328 11.25436,32.72908 1.44012,6.35005 2.20253,63.14593 0.90665,67.54074 -1.26333,4.28441 -5.49152,9.52307 -18.08367,22.40537 -6.21445,6.35764 -14.67811,15.94827 -18.80814,21.31253 -15.39488,19.99554 -28.84655,30.60409 -44.48494,35.08272 -3.24851,0.93033 -7.99472,1.26524 -20.48354,1.4454 -8.94043,0.12897 -17.60654,-0.0498 -19.25804,-0.39734 z m 30.34266,-7.26228 c 11.45998,-2.30317 21.02175,-7.42906 31.18511,-16.7178 4.28597,-3.91713 13.42125,-14.8536 17.69295,-21.18143 1.34119,-1.98676 8.83262,-10.11443 16.64762,-18.06147 8.27029,-8.41003 14.87494,-15.75568 15.80219,-17.57509 1.65046,-3.23848 1.77325,-5.94641 0.29176,-6.43397 -1.31816,-0.43381 -24.13272,21.48521 -30.14979,28.9663 -24.00368,29.84404 -42.04221,42.23175 -63.27692,43.45456 -15.33793,0.88323 -19.71671,2.18519 -17.26891,5.1346 3.26161,3.93001 16.19193,5.00367 29.07599,2.4143 z m -33.00077,-19.84086 c 1.43057,-0.59773 5.34821,-1.39894 8.70588,-1.78046 11.62035,-1.3204 19.19939,-6.16476 37.64331,-24.06082 10.50575,-10.1937 15.78868,-14.71287 22.58105,-19.31652 10.50154,-7.1176 14.5776,-11.10208 17.36378,-16.97368 2.96619,-6.25092 3.53324,-10.42016 3.53324,-25.97764 0,-15.44969 -1.16162,-24.00448 -5.02556,-37.01101 -6.99033,-23.530329 -21.33979,-43.680337 -36.87704,-51.784014 -5.21066,-2.717696 -16.60956,-6.244253 -26.00851,-8.046442 -5.24486,-1.005667 -36.49126,-2.799431 -37.56785,-2.156659 -0.19868,0.118618 -4.01817,0.581076 -8.48777,1.027684 -26.40993,2.638916 -50.59431,11.156134 -69.41872,24.447777 -22.9698,16.218644 -48.52309,49.415244 -54.070645,70.243854 -1.376808,5.16931 -1.74534,18.30764 -0.715869,25.52106 1.148748,8.04917 4.266192,9.70432 22.156824,11.76375 9.15653,1.05402 30.92285,5.70973 42.26383,9.04002 2.78147,0.81678 7.51184,2.58312 10.51194,3.92518 3.00009,1.34207 8.47095,3.24732 12.15744,4.23389 5.50517,1.47329 7.95119,2.63408 13.69043,6.49704 3.84324,2.5868 10.40133,7.67203 14.57353,11.30051 14.03541,12.20631 25.51717,20.19326 29.02915,20.19326 0.74829,0 2.53099,-0.48905 3.96156,-1.08678 z m 52.69286,-12.54458 c 6.64425,-4.88605 17.96667,-18.05899 16.65205,-19.37361 -0.6403,-0.6403 -3.16735,0.50009 -5.87315,2.65039 -3.50184,2.78291 -16.99202,17.11976 -16.99202,18.05846 0,1.44313 3.44041,0.70376 6.21312,-1.33524 z M 75.91178,229.55231 c 0.225241,-0.58697 -0.486065,-2.61889 -1.580681,-4.51537 -2.903922,-5.03121 -4.937624,-9.06814 -8.608709,-17.08841 -3.692574,-8.06722 -7.144563,-12.00702 -10.520351,-12.00702 -3.120559,0 -3.774834,1.85439 -2.456483,6.96233 1.50536,5.83252 6.854127,16.58304 10.161354,20.42338 4.891023,5.67944 11.922656,9.04529 13.00487,6.22509 z m 52.1376,-4.35046 c 10.75261,-1.76461 13.87372,-2.75915 13.87372,-4.42084 0,-3.06689 -5.42815,-3.82899 -32.7915,-4.60383 -24.18945,-0.68497 -26.45011,-0.52087 -26.45011,1.92005 0,1.85023 4.72949,5.79331 8.846653,7.37566 5.819641,2.23665 21.971067,2.11679 36.521237,-0.27104 z m 194.18351,-41.17491 c 1.29806,-0.99008 3.24783,-3.61457 4.33282,-5.83221 l 1.97271,-4.03207 -0.4311,-14.21602 c -0.53742,-17.72238 -1.85134,-24.46129 -7.77236,-39.86329 -2.69865,-7.01987 -4.62578,-10.29747 -7.83448,-13.3246 -1.57041,-1.48155 -2.48349,-1.89704 -3.01059,-1.36994 -0.81999,0.81999 -0.54454,2.15781 3.918,19.02929 1.41886,5.36425 3.10057,13.00426 3.73714,16.97778 1.19975,7.48903 1.12091,9.72821 -1.14717,32.58093 -0.69929,7.04592 -0.52548,9.02631 0.96085,10.9472 1.05769,1.36693 2.66416,1.0937 5.27418,-0.89707 z M 54.789536,178.18218 c 0.567863,-1.47983 0.408335,-24.57682 -0.188797,-27.33474 -0.670647,-3.09744 -1.995247,-3.05453 -3.613279,0.11708 -3.274198,6.41795 -4.77571,18.21969 -2.935862,23.07558 1.629992,4.30203 5.713315,6.81221 6.737938,4.14208 z M 85.881869,118.03174 C 99.729255,100.72531 116.90199,84.458958 129.417,76.794407 c 12.03732,-7.372 37.89374,-15.789701 54.4087,-17.713061 10.74428,-1.251295 27.91806,-2.146253 42.06182,-2.19192 17.44709,-0.05633 18.93736,-0.413267 14.82416,-3.550553 -5.53176,-4.21928 -18.02099,-6.96112 -31.49912,-6.915198 -27.64674,0.0942 -42.1017,2.346562 -62.33714,9.713339 -13.16918,4.794282 -18.5832,7.646914 -28.66692,15.10454 -8.90902,6.588858 -26.473997,23.85382 -31.468084,30.930606 -4.310251,6.10777 -11.74087,20.45937 -12.393145,23.9363 -0.558247,2.97571 -0.0019,5.1375 1.140471,4.43148 0.419926,-0.25953 5.097283,-5.88822 10.394127,-12.5082 z m -24.811862,-9.1465 c 7.341991,-11.607703 10.354533,-16.977781 9.524308,-16.977781 -1.292571,0 -5.256284,3.453649 -8.343518,7.269847 -6.312214,7.802664 -10.671248,16.510564 -10.601106,21.177494 l 0.03393,2.25715 1.722939,-2.16737 c 0.947617,-1.19206 4.39617,-6.39376 7.663451,-11.55934 z"
       id="path4157"
       inkscape:connector-curvature="0"
       transform="translate(333.62589,406.75165)" />
    <path
       style="opacity:1;fill:#ececec;fill-opacity:1;stroke:#2196f3;stroke-width:3.74041224;stroke-linejoin:round;stroke-miterlimit:4;stroke-dasharray:none;stroke-opacity:1"
       d="m 583.13641,782.96053 c -8.03369,-1.69044 -15.03816,-5.57708 -28.33459,-15.72224 -13.76885,-10.50561 -21.01899,-14.33757 -32.93147,-17.40547 -13.76883,-3.54598 -21.62409,-7.94772 -35.23245,-19.74271 -21.50721,-18.64127 -19.6374,-17.67734 -37.48573,-19.3249 -23.70109,-2.18786 -69.09208,-1.68401 -80.63697,0.89508 -42.15628,9.41755 -56.01101,10.41059 -70.19126,5.03093 -13.02437,-4.94112 -28.66355,-21.84966 -36.40953,-39.36468 -3.86327,-8.73556 -13.64596,-41.52641 -20.48931,-68.67861 -4.1523,-16.47506 -5.04922,-22.65573 -5.63824,-38.85365 -1.12372,-30.90167 2.64376,-63.13689 9.85812,-84.34799 16.90869,-49.71366 84.36821,-112.8043 147.07753,-137.5524 26.02412,-10.27035 65.03212,-16.15579 134.55244,-20.30096 12.26164,-0.7311 29.89412,-1.9528 39.18325,-2.71486 9.28912,-0.76206 20.84143,-1.03037 25.67178,-0.59625 27.75541,2.49459 60.86567,9.12231 76.64602,15.34233 52.69732,20.77136 96.8779,60.59293 118.13307,106.47766 10.43097,22.51792 15.8413,38.25184 21.04797,61.21012 2.69332,11.8759 4.11918,118.09591 1.69563,126.31511 -2.36269,8.01273 -10.27028,17.81011 -33.82019,41.90267 -11.62231,11.89008 -27.4511,29.82654 -35.17511,39.85882 -28.7916,37.39578 -53.94899,57.23595 -83.196,65.61192 -6.07539,1.73991 -14.95178,2.36626 -38.30844,2.70319 -16.72046,0.2412 -32.92786,-0.0931 -36.01652,-0.74311 z m 56.74703,-13.58196 c 21.43254,-4.3074 39.31501,-13.89387 58.3226,-31.26573 8.01564,-7.32584 25.1005,-27.7793 33.08945,-39.61364 2.5083,-3.71566 16.51883,-18.91607 31.13449,-33.77867 15.46714,-15.7285 27.8192,-29.46637 29.55335,-32.86905 3.0867,-6.05662 3.31634,-11.121 0.54565,-12.03285 -2.46523,-0.81131 -45.13315,40.18178 -56.38632,54.17296 -44.89184,55.81451 -78.62761,78.98207 -118.34088,81.26898 -28.6851,1.65182 -36.87432,4.08676 -32.29643,9.60277 6.09988,7.34993 30.28225,9.35789 54.37809,4.51523 z m -61.71824,-37.1065 c 2.67546,-1.11787 10.00226,-2.6163 16.28179,-3.32982 21.73245,-2.46942 35.90682,-11.52937 70.40075,-44.9987 19.64793,-19.06432 29.52809,-27.5161 42.23123,-36.12588 19.64003,-13.31137 27.26311,-20.76317 32.47384,-31.74427 5.54739,-11.69052 6.60789,-19.48785 6.60789,-48.58355 0,-28.8941 -2.17247,-44.89332 -9.39883,-69.21822 -13.07336,-44.00657 -39.90982,-81.69124 -68.96767,-96.84677 -9.74501,-5.08266 -31.06331,-11.67806 -48.64127,-15.04852 -9.80898,-1.88079 -68.24619,-5.23551 -70.25964,-4.0334 -0.37156,0.22185 -7.5148,1.08674 -15.87388,1.92199 -49.39201,4.93531 -94.62178,20.86427 -129.82731,45.72239 -42.95826,30.3322 -90.74819,92.41668 -101.12325,131.37048 -2.57492,9.66768 -3.26414,34.23906 -1.33883,47.72965 2.14838,15.0536 7.97866,18.14908 41.43783,22.00064 17.1246,1.97123 57.8321,10.67836 79.04207,16.90669 5.20193,1.52755 14.04869,4.83097 19.6595,7.3409 5.61078,2.50995 15.84243,6.07316 22.73692,7.91825 10.29581,2.75535 14.87037,4.92627 25.60393,12.1508 7.18765,4.83785 19.45263,14.34828 27.25551,21.13429 26.2491,22.82832 47.72236,37.76555 54.29049,37.76555 1.39946,0 4.73348,-0.91462 7.40893,-2.0325 z m 98.54652,-23.46095 c 12.42611,-9.13791 33.60137,-33.77403 31.14277,-36.23264 -1.19751,-1.1975 -5.92361,0.93527 -10.98401,4.95677 -6.54916,5.20462 -31.77858,32.01748 -31.77858,33.77305 0,2.69895 6.43427,1.31618 11.61982,-2.49718 z M 309.23989,698.53 c 0.42125,-1.09776 -0.90903,-4.89786 -2.95619,-8.44467 -5.43093,-9.4094 -9.23437,-16.9593 -16.10006,-31.95886 -6.90588,-15.08736 -13.36181,-22.4556 -19.67523,-22.4556 -5.83609,0 -7.05971,3.4681 -4.59412,13.02099 2.81534,10.90803 12.81861,31.01371 19.00382,38.19593 9.14722,10.62173 22.29783,16.91657 24.32178,11.64221 z m 97.50807,-8.13626 c 20.1096,-3.30019 25.94672,-5.16017 25.94672,-8.26788 0,-5.73572 -10.15177,-7.16099 -61.32687,-8.61011 -45.23926,-1.28104 -49.46716,-0.97414 -49.46716,3.59089 0,3.46031 8.84512,10.83468 16.54505,13.794 10.88393,4.18301 41.09044,3.95884 68.30226,-0.5069 z m 363.1632,-77.00556 c 2.42764,-1.85166 6.07411,-6.75999 8.10326,-10.90745 l 3.68938,-7.5408 -0.80625,-26.58689 c -1.00508,-33.14449 -3.46239,-45.74765 -14.53591,-74.55256 -5.04704,-13.12861 -8.65116,-19.2584 -14.6521,-24.91976 -2.93698,-2.7708 -4.64463,-3.54785 -5.63042,-2.56206 -1.53355,1.53355 -1.0184,4.03554 7.32747,35.58869 2.65356,10.03226 5.7987,24.32065 6.98922,31.75195 2.24378,14.00603 2.09633,18.19376 -2.14544,60.93306 -1.30782,13.17732 -0.98276,16.88106 1.79698,20.47352 1.9781,2.55644 4.98253,2.04545 9.86381,-1.6777 z m -500.1742,-10.93092 c 1.06201,-2.76758 0.76366,-45.96372 -0.3531,-51.1216 -1.25425,-5.79284 -3.73153,-5.71259 -6.75758,0.21897 -6.12343,12.0029 -8.93157,34.07458 -5.49066,43.15609 3.04841,8.04568 10.68506,12.74024 12.60134,7.74654 z m 58.14906,-112.49372 c 25.89748,-32.36659 58.01402,-62.78802 81.41967,-77.1223 22.51227,-13.78717 70.8691,-29.53 101.75549,-33.12709 20.09402,-2.34018 52.21252,-4.01394 78.66427,-4.09934 32.62966,-0.10527 35.41677,-0.77289 27.72423,-6.64027 -10.34552,-7.89093 -33.70296,-13.01873 -58.90984,-12.93285 -51.70511,0.17618 -78.73886,4.38856 -116.58331,18.16595 -24.62907,8.96631 -34.75441,14.30131 -53.61304,28.2486 -16.66171,12.32252 -49.51185,44.61156 -58.85181,57.84662 -8.06105,11.42279 -21.95784,38.26323 -23.17774,44.76581 -1.04404,5.5652 -0.003,9.60819 2.13291,8.28779 0.78536,-0.48538 9.53299,-11.01219 19.43917,-23.39292 z m -46.4033,-17.10584 c 13.73104,-21.70879 19.36512,-31.75194 17.81243,-31.75194 -2.4174,0 -9.83035,6.45903 -15.60411,13.59611 -11.80514,14.59258 -19.95743,30.87816 -19.82625,39.60627 l 0.0634,4.22134 3.22225,-4.05342 c 1.77225,-2.22941 8.22175,-11.95766 14.33223,-21.61836 z"
       id="path4411"
       inkscape:connector-curvature="0"
       inkscape:export-xdpi="90"
       inkscape:export-ydpi="90" />
  </g>
</svg>
